<?xml version="1.0" encoding="iso-8859-1"?>
<!-- Generator: Adobe Illustrator 19.0.0, SVG Export Plug-In . SVG Version: 6.00 Build 0)  -->
<svg version="1.1" id="Capa_1" xmlns="http://www.w3.org/2000/svg" xmlns:xlink="http://www.w3.org/1999/xlink" x="0px" y="0px"
	 viewBox="0 0 512.01 512.01" style="enable-background:new 0 0 512.01 512.01;" xml:space="preserve">
<g>
	<g transform="translate(1 1)">
		<path style="fill:#1566C0;" d="M502.47,255c-0.04,136.655-110.811,247.427-247.467,247.467c-4.267,0-8.448-0.085-12.629-0.341
			C110.793,495.394,7.555,386.753,7.537,255c0-5.717,0.171-11.435,0.683-17.067c1.718-27.271,8.066-54.05,18.773-79.189
			C63.78,71.354,147.34,12.729,242.033,7.875c4.267-0.256,8.619-0.341,12.971-0.341c65.633-0.002,128.578,26.07,174.987,72.48
			C476.4,126.422,502.472,189.367,502.47,255z"/>
		<path style="fill:#2296F3;" d="M476.87,255c-0.004,17.616-1.892,35.181-5.632,52.395c0,0.171-0.085,0.256-0.085,0.427
			c-23.787,108.907-117.458,188.462-228.779,194.304C110.793,495.394,7.555,386.753,7.537,255c0-5.717,0.171-11.435,0.683-17.067
			c1.718-27.271,8.066-54.05,18.773-79.189C63.78,71.354,147.34,12.729,242.033,7.875c19.7,0.998,39.209,4.35,58.112,9.984
			c4.523,1.365,9.045,2.816,13.397,4.437C411.593,57.683,476.921,150.759,476.87,255z"/>
		<g>
			<path style="fill:#4CAF50;" d="M32.71,363.715C16.099,329.884,7.486,292.689,7.537,255c0-5.717,0.171-11.435,0.683-17.067
				c5.035,0.085,34.219,1.451,41.984,17.067C58.566,271.725,26.054,329.24,32.71,363.715z"/>
			<path style="fill:#4CAF50;" d="M127.345,117.699c-6.038,7.461-12.814,14.294-20.224,20.395
				c-6.973,6.583-14.48,12.577-22.443,17.92c-15.531,9.984-34.816,16.043-51.541,5.12l-6.144-2.389
				c18.858-44.661,50.395-82.814,90.709-109.739l0.768,1.195c4.987,10.088,8.905,20.67,11.691,31.573
				C133.233,93.891,135.11,106.861,127.345,117.699z"/>
		</g>
		<path style="fill:#2E7D32;" d="M502.47,255c0.01,17.762-1.907,35.473-5.717,52.821c-8.397,2.083-17.192,1.936-25.515-0.427
			C497.538,186.273,430.12,64.389,313.542,22.296c4.949-1.963,9.131-3.413,12.203-4.437C430.622,49.114,502.501,145.564,502.47,255z
			"/>
		<path style="fill:#4CAF50;" d="M476.87,255c-0.004,17.616-1.892,35.181-5.632,52.395c-16.79-6.001-30.249-18.84-37.035-35.328
			c-15.531-31.147-66.56-40.96-88.405-36.011c-1.886,0.417-3.718,1.046-5.461,1.877c-17.067,8.533-25.6,51.2,8.533,42.667
			s25.6,42.667,8.533,51.2c-17.067,8.533-25.6,34.133-34.133,76.8s-25.6,42.667-59.733,34.133
			c-34.133-8.533-25.6-34.133-34.133-68.267c-8.533-34.133-34.133-42.667-76.8-51.2c-42.667-8.533-34.133-59.733-34.133-59.733
			c1.228-22.002,14.296-41.605,34.133-51.2c34.133-17.067,68.267,17.067,102.4,25.6c10.242,2.469,21.014,1.479,30.635-2.816
			c11.348-5.214,21.315-13.018,29.099-22.784c0,0,42.667-51.2,8.533-51.2c-7.985-0.134-15.736,2.693-21.76,7.936
			c-6.485,5.632-9.899,14.165-18.517,17.408c-11.776,4.437-25.088-6.059-34.56-11.861c-10.296-7.913-22.584-12.817-35.499-14.165
			c-7.583,1.326-15.353,1.152-22.869-0.512c-7.502-3.814-12.936-10.748-14.848-18.944c-3.072-13.227,8.619-20.224,20.053-22.528
			c15.76-2.586,31.762-3.387,47.701-2.389c6.315,0.171,31.659,3.669,32.341-6.485c0.768-12.459-18.091-22.955-24.917-31.488
			c-9.301-11.605,4.181-21.163,13.141-27.904c15.397-11.416,32.205-20.795,50.005-27.904C411.593,57.683,476.921,150.759,476.87,255
			z"/>
	</g>
	<path d="M256.004,0C122.745,0.177,11.856,102.445,0.917,235.253c-0.582,1.141-0.894,2.4-0.913,3.68
		c0.045,0.775,0.2,1.54,0.459,2.272c-0.281,4.899-0.459,9.825-0.459,14.794c-0.042,38.634,8.714,76.771,25.605,111.517
		c0.106,0.485,0.129,1.008,0.249,1.487c0.44,1.691,1.395,3.202,2.733,4.326C78.06,469.319,182.46,523.923,289.519,509.803
		c107.059-14.12,193.732-93.925,216.623-199.457l0.022-0.095c16.449-75.662-2.246-154.704-50.848-214.98S333.433-0.033,256.004,0z
		 M115.295,63.059c3.091,7.056,5.632,14.339,7.6,21.786c2.996,11.9,3.896,21.358-1.458,28.863
		c-4.402,5.591-9.376,10.706-14.842,15.262l-4.296,3.891c-6.583,6.262-13.698,11.939-21.267,16.967
		c-11.377,7.324-27.761,14.083-41.63,5.466C56.538,118.655,82.641,86.93,115.295,63.059z M17.271,248.078
		c10.094,1.28,22.795,4.724,26.299,11.739c2.408,4.817-3.342,23.834-7.542,37.717c-2.887,9.545-5.889,19.594-8.161,29.552
		C20.692,304.073,17.051,280.105,17.07,256C17.07,253.343,17.185,250.714,17.271,248.078z M256.004,494.933
		c-90.778-0.086-173.682-51.558-214.025-132.88c-2.667-16.098,4.187-39.088,10.387-59.579c6.654-22.013,11.913-39.4,6.471-50.292
		c-7.58-15.157-27.975-19.759-40.457-21.16c2.149-20.518,6.969-40.668,14.336-59.938c6.428,3.527,13.643,5.372,20.975,5.364
		c13.118-0.5,25.817-4.76,36.583-12.271c8.399-5.559,16.296-11.841,23.6-18.775l4.125-3.738
		c6.421-5.362,12.232-11.413,17.329-18.046c9.725-13.625,7.537-29.354,4.117-42.942c-2.413-9.407-5.639-18.586-9.643-27.433
		c50.272-31.453,110.487-42.972,168.819-32.296c-13.832,6.463-26.971,14.314-39.215,23.434l-0.796,0.596
		c-7.333,5.504-17.375,13.042-18.737,23.812c-0.629,5.663,1.132,11.331,4.858,15.642c3.015,3.475,6.328,6.68,9.9,9.579
		c5.304,3.825,9.724,8.746,12.958,14.429c-6.376,1.1-12.884,1.218-19.296,0.35c-1.696-0.121-3.108-0.217-4.096-0.242
		c-16.582-1.035-33.228-0.179-49.617,2.55c-9.451,1.471-17.959,6.56-23.725,14.192c-3.512,5.524-4.584,12.254-2.963,18.596
		c2.532,10.869,9.824,20.019,19.854,24.912c6.421,2.25,13.314,2.805,20.013,1.613c2.108-0.208,4.183-0.429,6.113-0.429
		c10.986,1.348,21.412,5.61,30.196,12.346l0.905,0.567c1.25,0.762,2.571,1.613,3.946,2.5c10.083,6.504,23.879,15.4,38.079,10.071
		c6.429-2.808,11.941-7.364,15.908-13.15c1.571-2.088,3.319-4.037,5.225-5.825c4.465-3.886,10.22-5.964,16.137-5.826
		c1.557-0.09,3.116,0.123,4.592,0.625c1.633,3.896-6.763,21.05-19.963,36.933c-6.866,8.581-15.637,15.444-25.617,20.046
		c-7.905,3.573-16.774,4.411-25.208,2.383c-11.244-3.37-22.1-7.92-32.387-13.575c-23.129-11.563-49.346-24.662-75.9-11.379
		c-22.513,10.875-37.372,33.087-38.833,58.045c-3.237,20.721,1.217,60.938,40.975,68.888c43.775,8.754,63.204,16.929,70.196,44.904
		c1.851,7.906,3.217,15.919,4.092,23.992c2.792,22,5.429,42.775,36.25,50.483c9.44,2.704,19.168,4.276,28.979,4.683
		c7.04,0.24,14-1.558,20.042-5.179c10.375-6.567,16.896-18.975,21.15-40.242c7.479-37.383,15.371-63.738,29.583-70.842
		c14.867-7.433,24.037-34.946,17.521-52.567c-4.779-12.913-16.713-18.358-31.942-14.546c-10.358,2.587-11.754-1.175-12.217-2.417
		c-1.765-9.276,1.954-18.741,9.562-24.333c1.132-0.527,2.318-0.928,3.538-1.196c19.942-4.5,65.887,5.442,78.887,31.508
		c17.405,34.806,41.106,42.21,58.948,41.861C458.098,422.666,363.741,494.786,256.004,494.933z M490.581,301.261
		c-19.568,2.272-36.034-8.575-47.744-32.003c-18.175-36.446-74.233-45.9-98.029-40.5c-2.518,0.568-4.962,1.421-7.287,2.542
		c-15.422,9.511-22.729,28.05-17.942,45.525c1.679,4.542,8.975,18.908,32.363,13.054c9.479-2.371,10.979,1.713,11.792,3.908
		c3.692,9.983-2.492,28.054-9.146,31.379c-20.567,10.283-29.758,38.133-38.683,82.758c-3.175,15.871-7.604,25.412-13.546,29.171
		c-6.908,4.375-18.333,2.717-35.75-1.642c-18.754-4.688-20.646-13.879-23.463-36.071c-0.956-8.745-2.446-17.424-4.463-25.987
		c-9.971-39.883-40.858-48.987-83.404-57.496c-33.958-6.792-27.671-48.225-27.392-49.963c0.078-0.464,0.117-0.934,0.117-1.404
		c1.214-18.771,12.46-35.426,29.417-43.567c18.958-9.471,39.2,0.663,60.633,11.375c11.398,6.231,23.432,11.218,35.896,14.875
		c12.043,2.954,24.727,1.809,36.046-3.254c12.594-5.733,23.659-14.355,32.296-25.167c7.158-8.592,29.904-37.929,22.021-54.767
		c-3.849-7.319-11.839-11.476-20.042-10.429c-10.039-0.132-19.775,3.437-27.35,10.025c-2.677,2.441-5.128,5.12-7.321,8.004
		c-2.116,3.347-5.092,6.064-8.617,7.867c-6.129,2.308-15.375-3.65-22.817-8.442c-1.492-0.962-2.921-1.883-4.225-2.683l-0.85-0.529
		c-11.386-8.565-24.96-13.739-39.158-14.925c-2.525,0-5.171,0.246-7.85,0.513c-3.875,0.751-7.868,0.631-11.692-0.35
		c-4.966-2.763-8.545-7.484-9.863-13.012c-0.604-1.855-0.355-3.883,0.679-5.537c3.294-3.707,7.825-6.087,12.746-6.696
		c15.133-2.435,30.49-3.182,45.787-2.225c0.804,0.021,1.954,0.108,3.342,0.208c12.692,0.908,25.717,1.267,32.9-4.987
		c2.869-2.443,4.619-5.951,4.846-9.713c0.796-12.821-10.192-22.346-19.017-30c-2.772-2.247-5.365-4.704-7.758-7.35
		c-1.387-1.729-1.279-2.562-1.246-2.838c0.454-3.6,8-9.263,12.05-12.304l0.796-0.596c17.428-12.954,36.748-23.145,57.279-30.216
		C443.225,63.904,513.733,181.719,490.581,301.261z"/>
</g>
<g>
</g>
<g>
</g>
<g>
</g>
<g>
</g>
<g>
</g>
<g>
</g>
<g>
</g>
<g>
</g>
<g>
</g>
<g>
</g>
<g>
</g>
<g>
</g>
<g>
</g>
<g>
</g>
<g>
</g>
</svg>
