<?xml version="1.0" encoding="utf-8"?>
<!-- Generator: Adobe Illustrator 23.0.3, SVG Export Plug-In . SVG Version: 6.00 Build 0)  -->
<svg version="1.1" id="Слой_1" xmlns="http://www.w3.org/2000/svg" xmlns:xlink="http://www.w3.org/1999/xlink" x="0px" y="0px"
	 viewBox="0 0 220 50" style="enable-background:new 0 0 220 50;" xml:space="preserve">
<style type="text/css">
	.st0{fill:#000000;}
</style>
<image style="overflow:visible;" width="870" height="189" xlink:href="4D72482E.jpg"  transform="matrix(0.9999 0 0 0.9999 -388 535)">
</image>
<rect x="-319.2" y="371.9" style="fill:none;" width="557.6" height="130.3"/>
<g>
	<path class="st0" d="M9.9,32.5v15.8H0.2V2.9h15.6c11.3,0,16.9,4.8,16.9,14.4c0,4.6-1.7,8.4-5.1,11.2c-3.4,2.8-7.7,4.1-12.8,4H9.9z
		 M9.9,10.4v14.6h4.2c5.7,0,8.5-2.5,8.5-7.4c0-4.8-2.8-7.2-8.4-7.2H9.9z"/>
	<path class="st0" d="M39.2,48.3v-48h9.4v48H39.2z"/>
	<path class="st0" d="M58.5,17.9c1.5-0.8,3.4-1.5,5.9-2c2.5-0.5,4.5-0.8,6.3-0.8c9.1,0,13.6,4.5,13.6,13.6v19.6h-9v-4.7h-0.1
		c-2.2,3.7-5.4,5.5-9.7,5.5c-3.1,0-5.5-0.9-7.4-2.6c-1.8-1.7-2.8-4.1-2.8-7.1c0-6.2,3.7-9.8,11.1-10.8l8.9-1.2c0-3.8-2-5.7-5.9-5.7
		c-3.9,0-7.5,1.2-10.9,3.5V17.9z M69.2,33.6c-3.4,0.4-5.1,2-5.1,4.6c0,1.2,0.4,2.2,1.2,2.9c0.8,0.7,1.9,1.1,3.4,1.1
		c1.9,0,3.5-0.7,4.8-2.1c1.2-1.4,1.9-3.1,1.9-5.1v-2.3L69.2,33.6z"/>
	<path class="st0" d="M123.7,48.3h-9.4V30.2c0-5.2-1.9-7.9-5.7-7.9c-1.8,0-3.3,0.7-4.5,2.1c-1.2,1.4-1.8,3.2-1.8,5.3v18.5H93V15.9
		h9.5V21h0.1c2.4-4,5.8-5.9,10.4-5.9c7.2,0,10.8,4.5,10.8,13.4V48.3z"/>
	<path class="st0" d="M161.2,34.8h-21.3c0.3,5,3.4,7.5,9.1,7.5c3.6,0,6.7-0.9,9.5-2.6v6.9c-2.9,1.7-6.8,2.5-11.6,2.5
		c-5.2,0-9.2-1.5-12-4.4c-2.9-2.9-4.3-7-4.3-12.2c0-5.2,1.5-9.4,4.6-12.6c3-3.2,6.9-4.8,11.5-4.8c4.6,0,8.2,1.4,10.8,4.2
		c2.6,2.8,3.9,6.6,3.9,11.5V34.8z M152.4,28.8c0-4.8-2-7.3-5.9-7.3c-1.6,0-3.1,0.7-4.3,2c-1.3,1.3-2,3.1-2.3,5.3H152.4z"/>
	<path class="st0" d="M187,47.9c-1.4,0.8-3.6,1.2-6.5,1.2c-6.9,0-10.3-3.6-10.3-10.8V22.9h-5.3v-7.1h5.3V8.8l9.4-2.7v9.8h7.4v7.1
		h-7.4v13.7c0,3.5,1.4,5.2,4.1,5.2c1.1,0,2.1-0.3,3.3-0.9V47.9z"/>
	<path class="st0" d="M194.2,17.9c1.5-0.8,3.4-1.5,5.9-2c2.5-0.5,4.5-0.8,6.3-0.8c9.1,0,13.6,4.5,13.6,13.6v19.6h-9v-4.7h-0.1
		c-2.2,3.7-5.4,5.5-9.7,5.5c-3.1,0-5.5-0.9-7.4-2.6c-1.8-1.7-2.8-4.1-2.8-7.1c0-6.2,3.7-9.8,11.1-10.8l8.9-1.2c0-3.8-2-5.7-5.9-5.7
		c-3.9,0-7.5,1.2-10.9,3.5V17.9z M204.9,33.6c-3.4,0.4-5.1,2-5.1,4.6c0,1.2,0.4,2.2,1.2,2.9c0.8,0.7,1.9,1.1,3.4,1.1
		c1.9,0,3.5-0.7,4.8-2.1c1.2-1.4,1.9-3.1,1.9-5.1v-2.3L204.9,33.6z"/>
</g>
</svg>
